<?xml version="1.0" encoding="UTF-8"?>
<svg xmlns="http://www.w3.org/2000/svg" width="900" height="560" viewBox="0 0 900 560">
<rect width="100%" height="100%" fill="#fffdf8"/>
<text x="450.00" y="34" text-anchor="middle" font-size="26" font-family="Helvetica, Arial, sans-serif" fill="#1f2937">Speedup vs MPI Processes</text>
<line x1="95" y1="475.00" x2="860" y2="475.00" stroke="#e5e7eb" stroke-width="1"/>
<text x="83" y="480.00" text-anchor="end" font-size="14" font-family="Helvetica, Arial, sans-serif" fill="#4b5563">0.0</text>
<line x1="95" y1="394.00" x2="860" y2="394.00" stroke="#e5e7eb" stroke-width="1"/>
<text x="83" y="399.00" text-anchor="end" font-size="14" font-family="Helvetica, Arial, sans-serif" fill="#4b5563">3.2</text>
<line x1="95" y1="313.00" x2="860" y2="313.00" stroke="#e5e7eb" stroke-width="1"/>
<text x="83" y="318.00" text-anchor="end" font-size="14" font-family="Helvetica, Arial, sans-serif" fill="#4b5563">6.4</text>
<line x1="95" y1="232.00" x2="860" y2="232.00" stroke="#e5e7eb" stroke-width="1"/>
<text x="83" y="237.00" text-anchor="end" font-size="14" font-family="Helvetica, Arial, sans-serif" fill="#4b5563">9.6</text>
<line x1="95" y1="151.00" x2="860" y2="151.00" stroke="#e5e7eb" stroke-width="1"/>
<text x="83" y="156.00" text-anchor="end" font-size="14" font-family="Helvetica, Arial, sans-serif" fill="#4b5563">12.8</text>
<line x1="95" y1="70.00" x2="860" y2="70.00" stroke="#e5e7eb" stroke-width="1"/>
<text x="83" y="75.00" text-anchor="end" font-size="14" font-family="Helvetica, Arial, sans-serif" fill="#4b5563">16.0</text>
<line x1="95.00" y1="70" x2="95.00" y2="475" stroke="#f1f5f9" stroke-width="1"/>
<text x="95.00" y="503" text-anchor="middle" font-size="14" font-family="Helvetica, Arial, sans-serif" fill="#4b5563">1</text>
<line x1="146.00" y1="70" x2="146.00" y2="475" stroke="#f1f5f9" stroke-width="1"/>
<text x="146.00" y="503" text-anchor="middle" font-size="14" font-family="Helvetica, Arial, sans-serif" fill="#4b5563">2</text>
<line x1="248.00" y1="70" x2="248.00" y2="475" stroke="#f1f5f9" stroke-width="1"/>
<text x="248.00" y="503" text-anchor="middle" font-size="14" font-family="Helvetica, Arial, sans-serif" fill="#4b5563">4</text>
<line x1="452.00" y1="70" x2="452.00" y2="475" stroke="#f1f5f9" stroke-width="1"/>
<text x="452.00" y="503" text-anchor="middle" font-size="14" font-family="Helvetica, Arial, sans-serif" fill="#4b5563">8</text>
<line x1="860.00" y1="70" x2="860.00" y2="475" stroke="#f1f5f9" stroke-width="1"/>
<text x="860.00" y="503" text-anchor="middle" font-size="14" font-family="Helvetica, Arial, sans-serif" fill="#4b5563">16</text>
<line x1="95" y1="475" x2="860" y2="475" stroke="#111827" stroke-width="2"/>
<line x1="95" y1="70" x2="95" y2="475" stroke="#111827" stroke-width="2"/>
<polyline fill="none" stroke="#f59e0b" stroke-width="3" stroke-dasharray="10 6" points="95.00,449.69 146.00,424.38 248.00,373.75 452.00,272.50 860.00,70.00"/>
<polyline fill="none" stroke="#0f766e" stroke-width="4" points="95.00,449.69 146.00,428.80 248.00,382.99 452.00,299.26 860.00,131.10"/>
<circle cx="95.00" cy="449.69" r="6" fill="#0f766e"/>
<text x="95.00" y="435.69" text-anchor="middle" font-size="13" font-family="Helvetica, Arial, sans-serif" fill="#111827">1</text>
<circle cx="146.00" cy="428.80" r="6" fill="#0f766e"/>
<text x="146.00" y="414.80" text-anchor="middle" font-size="13" font-family="Helvetica, Arial, sans-serif" fill="#111827">1.82</text>
<circle cx="248.00" cy="382.99" r="6" fill="#0f766e"/>
<text x="248.00" y="368.99" text-anchor="middle" font-size="13" font-family="Helvetica, Arial, sans-serif" fill="#111827">3.63</text>
<circle cx="452.00" cy="299.26" r="6" fill="#0f766e"/>
<text x="452.00" y="285.26" text-anchor="middle" font-size="13" font-family="Helvetica, Arial, sans-serif" fill="#111827">6.94</text>
<circle cx="860.00" cy="131.10" r="6" fill="#0f766e"/>
<text x="860.00" y="117.10" text-anchor="middle" font-size="13" font-family="Helvetica, Arial, sans-serif" fill="#111827">13.6</text>
<text x="450.00" y="540" text-anchor="middle" font-size="18" font-family="Helvetica, Arial, sans-serif" fill="#1f2937">Number of MPI Processes</text>
<text x="28" y="280.00" text-anchor="middle" font-size="18" font-family="Helvetica, Arial, sans-serif" fill="#1f2937" transform="rotate(-90 28 280.00)">Speedup</text>
<rect x="645" y="80" width="205" height="62" rx="8" fill="#ffffff" stroke="#d1d5db"/>
<line x1="661" y1="100" x2="697" y2="100" stroke="#0f766e" stroke-width="4"/>
<text x="707" y="105" font-size="14" font-family="Helvetica, Arial, sans-serif" fill="#111827">Measured</text>
<line x1="661" y1="124" x2="697" y2="124" stroke="#f59e0b" stroke-width="3" stroke-dasharray="10 6"/>
<text x="707" y="129" font-size="14" font-family="Helvetica, Arial, sans-serif" fill="#111827">Ideal</text>
</svg>